<svg width="72" height="72" viewBox="0 0 72 72" fill="none" xmlns="http://www.w3.org/2000/svg">
<circle cx="35.6427" cy="33.9707" r="33.7511" fill="url(#paint0_linear_1_774)"/>
<g filter="url(#filter0_d_1_774)">
<mask id="mask0_1_774" style="mask-type:alpha" maskUnits="userSpaceOnUse" x="3" y="1" width="65" height="66">
<circle cx="35.6425" cy="33.9703" r="32.1477" fill="url(#paint1_linear_1_774)"/>
</mask>
<g mask="url(#mask0_1_774)">
<g filter="url(#filter1_di_1_774)">
<circle cx="35.6441" cy="33.9687" r="31.4555" fill="url(#paint2_linear_1_774)"/>
<circle cx="35.6441" cy="33.9687" r="31.0366" stroke="#EFEAEA" stroke-opacity="0.73" stroke-width="0.837724"/>
</g>
<circle cx="35.6429" cy="33.9707" r="26.3429" stroke="url(#paint3_linear_1_774)" stroke-opacity="0.18" stroke-width="0.418862"/>
<circle cx="35.6388" cy="33.97" r="18.5047" stroke="url(#paint4_linear_1_774)" stroke-opacity="0.18" stroke-width="0.418862"/>
<g filter="url(#filter2_f_1_774)">
<ellipse cx="35.6419" cy="33.9691" rx="7.02526" ry="30.4978" transform="rotate(42.8632 35.6419 33.9691)" fill="white" fill-opacity="0.36"/>
</g>
</g>
</g>
<path d="M46.4952 33.839C46.4959 34.0936 46.4306 34.3441 46.3057 34.566C46.1809 34.788 46.0007 34.9738 45.7827 35.1055L32.2752 43.3687C32.0475 43.5081 31.7867 43.5842 31.5197 43.5892C31.2527 43.5941 30.9892 43.5277 30.7565 43.3968C30.526 43.2679 30.3339 43.0799 30.2001 42.8522C30.0663 42.6245 29.9956 42.3653 29.9952 42.1012V25.5768C29.9956 25.3127 30.0663 25.0534 30.2001 24.8257C30.3339 24.598 30.526 24.41 30.7565 24.2812C30.9892 24.1502 31.2527 24.0838 31.5197 24.0888C31.7867 24.0937 32.0475 24.1698 32.2752 24.3093L45.7827 32.5724C46.0007 32.7041 46.1809 32.89 46.3057 33.1119C46.4306 33.3338 46.4959 33.5843 46.4952 33.839Z" fill="white"/>
<defs>
<filter id="filter0_d_1_774" x="-2.19345e-05" y="1.12057e-05" width="71.2883" height="71.2883" filterUnits="userSpaceOnUse" color-interpolation-filters="sRGB">
<feFlood flood-opacity="0" result="BackgroundImageFix"/>
<feColorMatrix in="SourceAlpha" type="matrix" values="0 0 0 0 0 0 0 0 0 0 0 0 0 0 0 0 0 0 127 0" result="hardAlpha"/>
<feOffset dy="1.67545"/>
<feGaussianBlur stdDeviation="2.09431"/>
<feComposite in2="hardAlpha" operator="out"/>
<feColorMatrix type="matrix" values="0 0 0 0 0 0 0 0 0 0 0 0 0 0 0 0 0 0 0.65 0"/>
<feBlend mode="normal" in2="BackgroundImageFix" result="effect1_dropShadow_1_774"/>
<feBlend mode="normal" in="SourceGraphic" in2="effect1_dropShadow_1_774" result="shape"/>
</filter>
<filter id="filter1_di_1_774" x="0.837702" y="1.67546" width="69.6128" height="70.4505" filterUnits="userSpaceOnUse" color-interpolation-filters="sRGB">
<feFlood flood-opacity="0" result="BackgroundImageFix"/>
<feColorMatrix in="SourceAlpha" type="matrix" values="0 0 0 0 0 0 0 0 0 0 0 0 0 0 0 0 0 0 127 0" result="hardAlpha"/>
<feOffset dy="3.3509"/>
<feGaussianBlur stdDeviation="1.67545"/>
<feComposite in2="hardAlpha" operator="out"/>
<feColorMatrix type="matrix" values="0 0 0 0 0 0 0 0 0 0 0 0 0 0 0 0 0 0 0.25 0"/>
<feBlend mode="normal" in2="BackgroundImageFix" result="effect1_dropShadow_1_774"/>
<feBlend mode="normal" in="SourceGraphic" in2="effect1_dropShadow_1_774" result="shape"/>
<feColorMatrix in="SourceAlpha" type="matrix" values="0 0 0 0 0 0 0 0 0 0 0 0 0 0 0 0 0 0 127 0" result="hardAlpha"/>
<feOffset dy="-1.67545"/>
<feGaussianBlur stdDeviation="0.418862"/>
<feComposite in2="hardAlpha" operator="arithmetic" k2="-1" k3="1"/>
<feColorMatrix type="matrix" values="0 0 0 0 0.333333 0 0 0 0 0.470588 0 0 0 0 0.529412 0 0 0 0.86 0"/>
<feBlend mode="normal" in2="shape" result="effect2_innerShadow_1_774"/>
</filter>
<filter id="filter2_f_1_774" x="2.53309" y="-0.623157" width="66.2176" height="69.1845" filterUnits="userSpaceOnUse" color-interpolation-filters="sRGB">
<feFlood flood-opacity="0" result="BackgroundImageFix"/>
<feBlend mode="normal" in="SourceGraphic" in2="BackgroundImageFix" result="shape"/>
<feGaussianBlur stdDeviation="5.86407" result="effect1_foregroundBlur_1_774"/>
</filter>
<linearGradient id="paint0_linear_1_774" x1="15.5561" y1="0.219605" x2="55.7294" y2="67.7218" gradientUnits="userSpaceOnUse">
<stop stop-color="#E8E4E4"/>
<stop offset="0.5" stop-color="#AEB8BC"/>
<stop offset="1" stop-color="#E8E4E4"/>
</linearGradient>
<linearGradient id="paint1_linear_1_774" x1="35.6425" y1="1.82263" x2="35.6425" y2="66.118" gradientUnits="userSpaceOnUse">
<stop stop-color="#2C657D"/>
<stop offset="1" stop-color="#2A5A6F"/>
</linearGradient>
<linearGradient id="paint2_linear_1_774" x1="35.6441" y1="2.51318" x2="35.6441" y2="65.4242" gradientUnits="userSpaceOnUse">
<stop stop-color="#091B22"/>
<stop offset="1" stop-color="#112229"/>
</linearGradient>
<linearGradient id="paint3_linear_1_774" x1="54.3966" y1="13.3796" x2="18.4619" y2="54.5988" gradientUnits="userSpaceOnUse">
<stop stop-color="white" stop-opacity="0.5"/>
<stop offset="0.197796" stop-color="white" stop-opacity="0.03"/>
<stop offset="0.781565" stop-color="white" stop-opacity="0.03"/>
<stop offset="1" stop-color="white" stop-opacity="0.5"/>
</linearGradient>
<linearGradient id="paint4_linear_1_774" x1="48.8124" y1="19.5056" x2="23.5698" y2="48.4603" gradientUnits="userSpaceOnUse">
<stop stop-color="white" stop-opacity="0.5"/>
<stop offset="0.197796" stop-color="white" stop-opacity="0.03"/>
<stop offset="0.781565" stop-color="white" stop-opacity="0.03"/>
<stop offset="1" stop-color="white" stop-opacity="0.5"/>
</linearGradient>
</defs>
</svg>
