<svg width="204" height="103" viewBox="0 0 204 103" fill="none" xmlns="http://www.w3.org/2000/svg">
<g filter="url(#filter0_d_4870_193792)">
<rect x="34" y="30" width="136" height="44" rx="8" fill="#4C5F6D" shape-rendering="crispEdges"/>
<path d="M63.0511 60.28C62.0711 61.23 61.0011 61.08 59.9711 60.63C58.8811 60.17 57.8811 60.15 56.7311 60.63C55.2911 61.25 54.5311 61.07 53.6711 60.28C48.7911 55.25 49.5111 47.59 55.0511 47.31C56.4011 47.38 57.3411 48.05 58.1311 48.11C59.3111 47.87 60.4411 47.18 61.7011 47.27C63.2111 47.39 64.3511 47.99 65.1011 49.07C61.9811 50.94 62.7211 55.05 65.5811 56.2C65.0111 57.7 64.2711 59.19 63.0411 60.29L63.0511 60.28ZM58.0311 47.25C57.8811 45.02 59.6911 43.18 61.7711 43C62.0611 45.58 59.4311 47.5 58.0311 47.25Z" fill="white"/>
<path d="M78.76 47.12C78.1067 47.12 77.5333 46.97 77.04 46.67C76.5467 46.3633 76.1633 45.94 75.89 45.4C75.6167 44.86 75.48 44.23 75.48 43.51C75.48 42.7967 75.6167 42.1667 75.89 41.62C76.17 41.0733 76.5633 40.6467 77.07 40.34C77.5833 40.0333 78.1867 39.88 78.88 39.88C79.6667 39.88 80.3233 40.07 80.85 40.45C81.3767 40.8233 81.7133 41.3467 81.86 42.02H80.89C80.7967 41.6 80.5767 41.2667 80.23 41.02C79.8833 40.7733 79.4333 40.65 78.88 40.65C78.3667 40.65 77.9167 40.7667 77.53 41C77.15 41.2267 76.8567 41.5533 76.65 41.98C76.4433 42.4067 76.34 42.9167 76.34 43.51C76.34 44.1033 76.4433 44.6167 76.65 45.05C76.8567 45.4767 77.1433 45.8033 77.51 46.03C77.8833 46.2567 78.31 46.37 78.79 46.37C79.5367 46.37 80.1 46.15 80.48 45.71C80.86 45.27 81.0767 44.6733 81.13 43.92H79.11V43.26H81.99V47H81.22L81.15 45.85C80.9833 46.1233 80.79 46.3567 80.57 46.55C80.3567 46.7367 80.1033 46.88 79.81 46.98C79.5167 47.0733 79.1667 47.12 78.76 47.12ZM85.4881 47.12C85.0148 47.12 84.5948 47.01 84.2281 46.79C83.8681 46.57 83.5848 46.2633 83.3781 45.87C83.1715 45.47 83.0681 45.0067 83.0681 44.48C83.0681 43.9467 83.1681 43.4833 83.3681 43.09C83.5748 42.6967 83.8615 42.39 84.2281 42.17C84.6015 41.95 85.0281 41.84 85.5081 41.84C86.0015 41.84 86.4181 41.95 86.7581 42.17C87.1048 42.39 87.3681 42.68 87.5481 43.04C87.7348 43.3933 87.8281 43.7833 87.8281 44.21C87.8281 44.2767 87.8281 44.3467 87.8281 44.42C87.8281 44.4933 87.8248 44.5767 87.8181 44.67H83.6981V44.02H87.0081C86.9881 43.56 86.8348 43.2 86.5481 42.94C86.2681 42.68 85.9148 42.55 85.4881 42.55C85.2015 42.55 84.9348 42.6167 84.6881 42.75C84.4481 42.8767 84.2548 43.0667 84.1081 43.32C83.9615 43.5667 83.8881 43.8767 83.8881 44.25V44.53C83.8881 44.9433 83.9615 45.29 84.1081 45.57C84.2615 45.85 84.4581 46.06 84.6981 46.2C84.9448 46.34 85.2081 46.41 85.4881 46.41C85.8415 46.41 86.1315 46.3333 86.3581 46.18C86.5915 46.02 86.7581 45.8067 86.8581 45.54H87.6881C87.6081 45.84 87.4681 46.11 87.2681 46.35C87.0681 46.59 86.8181 46.78 86.5181 46.92C86.2248 47.0533 85.8815 47.12 85.4881 47.12ZM90.7757 47C90.4757 47 90.2157 46.9533 89.9957 46.86C89.7757 46.7667 89.6057 46.61 89.4857 46.39C89.3724 46.1633 89.3157 45.86 89.3157 45.48V42.67H88.4357V41.96H89.3157L89.4257 40.74H90.1557V41.96H91.6157V42.67H90.1557V45.48C90.1557 45.7933 90.219 46.0067 90.3457 46.12C90.4724 46.2267 90.6957 46.28 91.0157 46.28H91.5557V47H90.7757ZM95.448 47V41.96H96.288V47H95.448ZM95.868 40.89C95.7013 40.89 95.5613 40.8367 95.448 40.73C95.3413 40.6167 95.288 40.4767 95.288 40.31C95.288 40.1433 95.3413 40.01 95.448 39.91C95.5613 39.8033 95.7013 39.75 95.868 39.75C96.028 39.75 96.1646 39.8033 96.278 39.91C96.3913 40.01 96.448 40.1433 96.448 40.31C96.448 40.4767 96.3913 40.6167 96.278 40.73C96.1646 40.8367 96.028 40.89 95.868 40.89ZM99.7503 47C99.4503 47 99.1903 46.9533 98.9703 46.86C98.7503 46.7667 98.5803 46.61 98.4603 46.39C98.347 46.1633 98.2903 45.86 98.2903 45.48V42.67H97.4103V41.96H98.2903L98.4003 40.74H99.1303V41.96H100.59V42.67H99.1303V45.48C99.1303 45.7933 99.1936 46.0067 99.3203 46.12C99.447 46.2267 99.6703 46.28 99.9903 46.28H100.53V47H99.7503ZM106.593 47.12C106.126 47.12 105.706 47.0133 105.333 46.8C104.959 46.58 104.666 46.2733 104.453 45.88C104.239 45.48 104.133 45.0167 104.133 44.49C104.133 43.95 104.239 43.4833 104.453 43.09C104.673 42.69 104.969 42.3833 105.343 42.17C105.723 41.95 106.146 41.84 106.613 41.84C107.093 41.84 107.516 41.95 107.883 42.17C108.256 42.3833 108.549 42.69 108.763 43.09C108.983 43.4833 109.093 43.9467 109.093 44.48C109.093 45.0133 108.983 45.48 108.763 45.88C108.543 46.2733 108.246 46.58 107.873 46.8C107.499 47.0133 107.073 47.12 106.593 47.12ZM106.603 46.4C106.889 46.4 107.156 46.33 107.403 46.19C107.649 46.0433 107.849 45.8267 108.003 45.54C108.156 45.2533 108.233 44.9 108.233 44.48C108.233 44.0533 108.156 43.7 108.003 43.42C107.856 43.1333 107.659 42.92 107.413 42.78C107.173 42.6333 106.906 42.56 106.613 42.56C106.333 42.56 106.066 42.6333 105.813 42.78C105.566 42.92 105.366 43.1333 105.213 43.42C105.066 43.7 104.993 44.0533 104.993 44.48C104.993 44.9 105.066 45.2533 105.213 45.54C105.366 45.8267 105.563 46.0433 105.803 46.19C106.049 46.33 106.316 46.4 106.603 46.4ZM110.27 47V41.96H111.03L111.07 42.84C111.23 42.5267 111.457 42.2833 111.75 42.11C112.05 41.93 112.39 41.84 112.77 41.84C113.164 41.84 113.504 41.92 113.79 42.08C114.077 42.2333 114.3 42.47 114.46 42.79C114.62 43.1033 114.7 43.5033 114.7 43.99V47H113.86V44.08C113.86 43.5733 113.747 43.1933 113.52 42.94C113.3 42.6867 112.987 42.56 112.58 42.56C112.3 42.56 112.05 42.63 111.83 42.77C111.61 42.9033 111.434 43.1 111.3 43.36C111.174 43.6133 111.11 43.93 111.11 44.31V47H110.27Z" fill="white" fill-opacity="0.53"/>
<path d="M75.35 63L78.934 53.2H80.81L84.394 63H82.616L79.858 55.16L77.1 63H75.35ZM76.946 60.69L77.394 59.36H82.224L82.672 60.69H76.946ZM85.686 66.08V55.944H87.184L87.366 56.966C87.5154 56.7607 87.6927 56.5693 87.898 56.392C88.1127 56.2053 88.3694 56.056 88.668 55.944C88.976 55.832 89.326 55.776 89.718 55.776C90.3807 55.776 90.964 55.9393 91.468 56.266C91.9814 56.5927 92.3827 57.036 92.672 57.596C92.9614 58.1467 93.106 58.7767 93.106 59.486C93.106 60.1953 92.9567 60.83 92.658 61.39C92.3687 61.9407 91.9674 62.3747 91.454 62.692C90.95 63.0093 90.3714 63.168 89.718 63.168C89.186 63.168 88.7194 63.07 88.318 62.874C87.926 62.6687 87.6087 62.3793 87.366 62.006V66.08H85.686ZM89.368 61.712C89.76 61.712 90.11 61.6187 90.418 61.432C90.726 61.2453 90.964 60.984 91.132 60.648C91.3094 60.312 91.398 59.9247 91.398 59.486C91.398 59.038 91.3094 58.646 91.132 58.31C90.964 57.974 90.726 57.7127 90.418 57.526C90.11 57.3393 89.76 57.246 89.368 57.246C88.9667 57.246 88.612 57.3393 88.304 57.526C88.0054 57.7127 87.7674 57.974 87.59 58.31C87.422 58.646 87.338 59.0333 87.338 59.472C87.338 59.92 87.422 60.312 87.59 60.648C87.7674 60.9747 88.0054 61.236 88.304 61.432C88.612 61.6187 88.9667 61.712 89.368 61.712ZM94.7368 66.08V55.944H96.2348L96.4168 56.966C96.5662 56.7607 96.7435 56.5693 96.9488 56.392C97.1635 56.2053 97.4202 56.056 97.7188 55.944C98.0268 55.832 98.3768 55.776 98.7688 55.776C99.4315 55.776 100.015 55.9393 100.519 56.266C101.032 56.5927 101.433 57.036 101.723 57.596C102.012 58.1467 102.157 58.7767 102.157 59.486C102.157 60.1953 102.007 60.83 101.709 61.39C101.419 61.9407 101.018 62.3747 100.505 62.692C100.001 63.0093 99.4222 63.168 98.7688 63.168C98.2368 63.168 97.7702 63.07 97.3688 62.874C96.9768 62.6687 96.6595 62.3793 96.4168 62.006V66.08H94.7368ZM98.4188 61.712C98.8108 61.712 99.1608 61.6187 99.4688 61.432C99.7768 61.2453 100.015 60.984 100.183 60.648C100.36 60.312 100.449 59.9247 100.449 59.486C100.449 59.038 100.36 58.646 100.183 58.31C100.015 57.974 99.7768 57.7127 99.4688 57.526C99.1608 57.3393 98.8108 57.246 98.4188 57.246C98.0175 57.246 97.6628 57.3393 97.3548 57.526C97.0562 57.7127 96.8182 57.974 96.6408 58.31C96.4728 58.646 96.3888 59.0333 96.3888 59.472C96.3888 59.92 96.4728 60.312 96.6408 60.648C96.8182 60.9747 97.0562 61.236 97.3548 61.432C97.6628 61.6187 98.0175 61.712 98.4188 61.712ZM103.788 63V52.92H105.468V63H103.788ZM110.646 63.168C109.946 63.168 109.33 63.0187 108.798 62.72C108.266 62.412 107.851 61.9827 107.552 61.432C107.254 60.8813 107.104 60.2467 107.104 59.528C107.104 58.7813 107.249 58.128 107.538 57.568C107.837 57.008 108.252 56.5693 108.784 56.252C109.326 55.9347 109.951 55.776 110.66 55.776C111.351 55.776 111.953 55.93 112.466 56.238C112.98 56.546 113.376 56.9613 113.656 57.484C113.936 57.9973 114.076 58.576 114.076 59.22C114.076 59.3133 114.076 59.416 114.076 59.528C114.076 59.64 114.067 59.7567 114.048 59.878H108.308V58.8H112.382C112.364 58.2867 112.191 57.8853 111.864 57.596C111.538 57.2973 111.132 57.148 110.646 57.148C110.301 57.148 109.984 57.2273 109.694 57.386C109.405 57.5447 109.176 57.7827 109.008 58.1C108.84 58.408 108.756 58.8 108.756 59.276V59.682C108.756 60.1207 108.836 60.4987 108.994 60.816C109.162 61.1333 109.386 61.376 109.666 61.544C109.956 61.7027 110.278 61.782 110.632 61.782C111.024 61.782 111.346 61.698 111.598 61.53C111.86 61.362 112.051 61.138 112.172 60.858H113.88C113.75 61.2967 113.535 61.6933 113.236 62.048C112.938 62.3933 112.569 62.6687 112.13 62.874C111.692 63.07 111.197 63.168 110.646 63.168ZM122.391 63.168C121.682 63.168 121.052 63.042 120.501 62.79C119.951 62.538 119.521 62.1787 119.213 61.712C118.905 61.2453 118.747 60.69 118.737 60.046H120.515C120.515 60.3727 120.59 60.6667 120.739 60.928C120.898 61.18 121.113 61.3807 121.383 61.53C121.663 61.6793 121.999 61.754 122.391 61.754C122.727 61.754 123.017 61.7027 123.259 61.6C123.511 61.488 123.703 61.334 123.833 61.138C123.973 60.9327 124.043 60.6947 124.043 60.424C124.043 60.116 123.969 59.864 123.819 59.668C123.679 59.4627 123.483 59.29 123.231 59.15C122.979 59.01 122.69 58.8887 122.363 58.786C122.037 58.674 121.691 58.5573 121.327 58.436C120.553 58.1747 119.969 57.8433 119.577 57.442C119.185 57.0313 118.989 56.4853 118.989 55.804C118.989 55.2347 119.125 54.7447 119.395 54.334C119.666 53.9233 120.044 53.606 120.529 53.382C121.024 53.1487 121.593 53.032 122.237 53.032C122.891 53.032 123.46 53.1487 123.945 53.382C124.44 53.6153 124.827 53.942 125.107 54.362C125.397 54.7727 125.546 55.2673 125.555 55.846H123.763C123.754 55.6033 123.689 55.3793 123.567 55.174C123.446 54.9593 123.269 54.7867 123.035 54.656C122.811 54.516 122.536 54.446 122.209 54.446C121.929 54.4367 121.677 54.4833 121.453 54.586C121.239 54.6793 121.066 54.8193 120.935 55.006C120.814 55.1833 120.753 55.4073 120.753 55.678C120.753 55.9393 120.809 56.1587 120.921 56.336C121.043 56.504 121.215 56.6487 121.439 56.77C121.663 56.882 121.925 56.9893 122.223 57.092C122.522 57.1947 122.849 57.3067 123.203 57.428C123.689 57.5867 124.127 57.7827 124.519 58.016C124.921 58.24 125.238 58.534 125.471 58.898C125.705 59.262 125.821 59.7333 125.821 60.312C125.821 60.816 125.691 61.2873 125.429 61.726C125.168 62.1553 124.785 62.5053 124.281 62.776C123.777 63.0373 123.147 63.168 122.391 63.168ZM130.465 63C129.989 63 129.574 62.9253 129.219 62.776C128.874 62.6267 128.603 62.3793 128.407 62.034C128.211 61.6887 128.113 61.222 128.113 60.634V57.358H126.909V55.944H128.113L128.309 54.082H129.793V55.944H131.711V57.358H129.793V60.634C129.793 60.9887 129.868 61.236 130.017 61.376C130.176 61.5067 130.437 61.572 130.801 61.572H131.669V63H130.465ZM136.404 63.168C135.732 63.168 135.125 63.014 134.584 62.706C134.052 62.3887 133.632 61.9547 133.324 61.404C133.025 60.844 132.876 60.2047 132.876 59.486C132.876 58.7487 133.03 58.1047 133.338 57.554C133.646 56.994 134.066 56.56 134.598 56.252C135.139 55.9347 135.746 55.776 136.418 55.776C137.09 55.776 137.692 55.9347 138.224 56.252C138.765 56.56 139.185 56.9893 139.484 57.54C139.792 58.0907 139.946 58.7347 139.946 59.472C139.946 60.2093 139.792 60.8533 139.484 61.404C139.176 61.9547 138.751 62.3887 138.21 62.706C137.678 63.014 137.076 63.168 136.404 63.168ZM136.404 61.726C136.74 61.726 137.043 61.642 137.314 61.474C137.594 61.306 137.818 61.054 137.986 60.718C138.154 60.382 138.238 59.9667 138.238 59.472C138.238 58.9773 138.154 58.5667 137.986 58.24C137.827 57.904 137.608 57.652 137.328 57.484C137.057 57.316 136.754 57.232 136.418 57.232C136.091 57.232 135.788 57.316 135.508 57.484C135.228 57.652 135.004 57.904 134.836 58.24C134.668 58.5667 134.584 58.9773 134.584 59.472C134.584 59.9667 134.668 60.382 134.836 60.718C135.004 61.054 135.223 61.306 135.494 61.474C135.774 61.642 136.077 61.726 136.404 61.726ZM141.59 63V55.944H143.088L143.242 57.26C143.41 56.952 143.62 56.6907 143.872 56.476C144.124 56.252 144.418 56.0793 144.754 55.958C145.1 55.8367 145.478 55.776 145.888 55.776V57.554H145.3C145.02 57.554 144.754 57.5913 144.502 57.666C144.25 57.7313 144.031 57.8433 143.844 58.002C143.667 58.1513 143.527 58.3613 143.424 58.632C143.322 58.8933 143.27 59.2247 143.27 59.626V63H141.59ZM150.308 63.168C149.608 63.168 148.992 63.0187 148.46 62.72C147.928 62.412 147.513 61.9827 147.214 61.432C146.916 60.8813 146.766 60.2467 146.766 59.528C146.766 58.7813 146.911 58.128 147.2 57.568C147.499 57.008 147.914 56.5693 148.446 56.252C148.988 55.9347 149.613 55.776 150.322 55.776C151.013 55.776 151.615 55.93 152.128 56.238C152.642 56.546 153.038 56.9613 153.318 57.484C153.598 57.9973 153.738 58.576 153.738 59.22C153.738 59.3133 153.738 59.416 153.738 59.528C153.738 59.64 153.729 59.7567 153.71 59.878H147.97V58.8H152.044C152.026 58.2867 151.853 57.8853 151.526 57.596C151.2 57.2973 150.794 57.148 150.308 57.148C149.963 57.148 149.646 57.2273 149.356 57.386C149.067 57.5447 148.838 57.7827 148.67 58.1C148.502 58.408 148.418 58.8 148.418 59.276V59.682C148.418 60.1207 148.498 60.4987 148.656 60.816C148.824 61.1333 149.048 61.376 149.328 61.544C149.618 61.7027 149.94 61.782 150.294 61.782C150.686 61.782 151.008 61.698 151.26 61.53C151.522 61.362 151.713 61.138 151.834 60.858H153.542C153.412 61.2967 153.197 61.6933 152.898 62.048C152.6 62.3933 152.231 62.6687 151.792 62.874C151.354 63.07 150.859 63.168 150.308 63.168Z" fill="white"/>
</g>
<defs>
<filter id="filter0_d_4870_193792" x="0" y="0" width="204" height="112" filterUnits="userSpaceOnUse" color-interpolation-filters="sRGB">
<feFlood flood-opacity="0" result="BackgroundImageFix"/>
<feColorMatrix in="SourceAlpha" type="matrix" values="0 0 0 0 0 0 0 0 0 0 0 0 0 0 0 0 0 0 127 0" result="hardAlpha"/>
<feOffset dy="4"/>
<feGaussianBlur stdDeviation="17"/>
<feComposite in2="hardAlpha" operator="out"/>
<feColorMatrix type="matrix" values="0 0 0 0 0 0 0 0 0 0 0 0 0 0 0 0 0 0 0.07 0"/>
<feBlend mode="normal" in2="BackgroundImageFix" result="effect1_dropShadow_4870_193792"/>
<feBlend mode="normal" in="SourceGraphic" in2="effect1_dropShadow_4870_193792" result="shape"/>
</filter>
</defs>
</svg>
