<svg width="204" height="103" viewBox="0 0 204 103" fill="none" xmlns="http://www.w3.org/2000/svg">
<g filter="url(#filter0_d_4870_193785)">
<rect x="34" y="30" width="136" height="44" rx="8" fill="#4C5F6D" shape-rendering="crispEdges"/>
<path d="M49.6334 43.4338L58.3734 52.0048L49.6984 60.6548C49.5565 60.47 49.4463 60.2628 49.3724 60.0418C49.3342 59.7916 49.3342 59.5371 49.3724 59.2868V44.5668C49.3464 44.1718 49.4374 43.7768 49.6324 43.4338M62.1384 48.2668L59.2854 51.0928L50.6494 42.5998C50.9294 42.5028 51.2294 42.4758 51.5224 42.5218C51.9824 42.6478 52.4214 42.8418 52.8244 43.0948L60.6404 47.4198C61.1484 47.6928 61.6434 47.9798 62.1384 48.2668ZM59.2864 52.9298L62.1254 55.7178L60.0674 56.8638L53.7884 60.3538C53.2684 60.6408 52.7464 60.9148 52.2384 61.2278C52.021 61.3632 51.7773 61.4506 51.5235 61.4842C51.2696 61.5178 51.0115 61.4969 50.7664 61.4228L59.2864 52.9298ZM66.6464 52.0048C66.6537 52.3545 66.5653 52.6995 66.3909 53.0027C66.2164 53.3058 65.9624 53.5555 65.6564 53.7248L63.3104 55.0268L60.2234 52.0048L63.3234 48.9308C64.1184 49.3738 64.9004 49.8168 65.6814 50.2338C65.9929 50.4079 66.2487 50.6666 66.4193 50.98C66.5899 51.2934 66.6693 51.6487 66.6464 52.0048Z" fill="white"/>
<path d="M78.76 47.12C78.1067 47.12 77.5333 46.97 77.04 46.67C76.5467 46.3633 76.1633 45.94 75.89 45.4C75.6167 44.86 75.48 44.23 75.48 43.51C75.48 42.7967 75.6167 42.1667 75.89 41.62C76.17 41.0733 76.5633 40.6467 77.07 40.34C77.5833 40.0333 78.1867 39.88 78.88 39.88C79.6667 39.88 80.3233 40.07 80.85 40.45C81.3767 40.8233 81.7133 41.3467 81.86 42.02H80.89C80.7967 41.6 80.5767 41.2667 80.23 41.02C79.8833 40.7733 79.4333 40.65 78.88 40.65C78.3667 40.65 77.9167 40.7667 77.53 41C77.15 41.2267 76.8567 41.5533 76.65 41.98C76.4433 42.4067 76.34 42.9167 76.34 43.51C76.34 44.1033 76.4433 44.6167 76.65 45.05C76.8567 45.4767 77.1433 45.8033 77.51 46.03C77.8833 46.2567 78.31 46.37 78.79 46.37C79.5367 46.37 80.1 46.15 80.48 45.71C80.86 45.27 81.0767 44.6733 81.13 43.92H79.11V43.26H81.99V47H81.22L81.15 45.85C80.9833 46.1233 80.79 46.3567 80.57 46.55C80.3567 46.7367 80.1033 46.88 79.81 46.98C79.5167 47.0733 79.1667 47.12 78.76 47.12ZM85.4881 47.12C85.0148 47.12 84.5948 47.01 84.2281 46.79C83.8681 46.57 83.5848 46.2633 83.3781 45.87C83.1715 45.47 83.0681 45.0067 83.0681 44.48C83.0681 43.9467 83.1681 43.4833 83.3681 43.09C83.5748 42.6967 83.8615 42.39 84.2281 42.17C84.6015 41.95 85.0281 41.84 85.5081 41.84C86.0015 41.84 86.4181 41.95 86.7581 42.17C87.1048 42.39 87.3681 42.68 87.5481 43.04C87.7348 43.3933 87.8281 43.7833 87.8281 44.21C87.8281 44.2767 87.8281 44.3467 87.8281 44.42C87.8281 44.4933 87.8248 44.5767 87.8181 44.67H83.6981V44.02H87.0081C86.9881 43.56 86.8348 43.2 86.5481 42.94C86.2681 42.68 85.9148 42.55 85.4881 42.55C85.2015 42.55 84.9348 42.6167 84.6881 42.75C84.4481 42.8767 84.2548 43.0667 84.1081 43.32C83.9615 43.5667 83.8881 43.8767 83.8881 44.25V44.53C83.8881 44.9433 83.9615 45.29 84.1081 45.57C84.2615 45.85 84.4581 46.06 84.6981 46.2C84.9448 46.34 85.2081 46.41 85.4881 46.41C85.8415 46.41 86.1315 46.3333 86.3581 46.18C86.5915 46.02 86.7581 45.8067 86.8581 45.54H87.6881C87.6081 45.84 87.4681 46.11 87.2681 46.35C87.0681 46.59 86.8181 46.78 86.5181 46.92C86.2248 47.0533 85.8815 47.12 85.4881 47.12ZM90.7757 47C90.4757 47 90.2157 46.9533 89.9957 46.86C89.7757 46.7667 89.6057 46.61 89.4857 46.39C89.3724 46.1633 89.3157 45.86 89.3157 45.48V42.67H88.4357V41.96H89.3157L89.4257 40.74H90.1557V41.96H91.6157V42.67H90.1557V45.48C90.1557 45.7933 90.219 46.0067 90.3457 46.12C90.4724 46.2267 90.6957 46.28 91.0157 46.28H91.5557V47H90.7757ZM95.448 47V41.96H96.288V47H95.448ZM95.868 40.89C95.7013 40.89 95.5613 40.8367 95.448 40.73C95.3413 40.6167 95.288 40.4767 95.288 40.31C95.288 40.1433 95.3413 40.01 95.448 39.91C95.5613 39.8033 95.7013 39.75 95.868 39.75C96.028 39.75 96.1646 39.8033 96.278 39.91C96.3913 40.01 96.448 40.1433 96.448 40.31C96.448 40.4767 96.3913 40.6167 96.278 40.73C96.1646 40.8367 96.028 40.89 95.868 40.89ZM99.7503 47C99.4503 47 99.1903 46.9533 98.9703 46.86C98.7503 46.7667 98.5803 46.61 98.4603 46.39C98.347 46.1633 98.2903 45.86 98.2903 45.48V42.67H97.4103V41.96H98.2903L98.4003 40.74H99.1303V41.96H100.59V42.67H99.1303V45.48C99.1303 45.7933 99.1936 46.0067 99.3203 46.12C99.447 46.2267 99.6703 46.28 99.9903 46.28H100.53V47H99.7503ZM106.593 47.12C106.126 47.12 105.706 47.0133 105.333 46.8C104.959 46.58 104.666 46.2733 104.453 45.88C104.239 45.48 104.133 45.0167 104.133 44.49C104.133 43.95 104.239 43.4833 104.453 43.09C104.673 42.69 104.969 42.3833 105.343 42.17C105.723 41.95 106.146 41.84 106.613 41.84C107.093 41.84 107.516 41.95 107.883 42.17C108.256 42.3833 108.549 42.69 108.763 43.09C108.983 43.4833 109.093 43.9467 109.093 44.48C109.093 45.0133 108.983 45.48 108.763 45.88C108.543 46.2733 108.246 46.58 107.873 46.8C107.499 47.0133 107.073 47.12 106.593 47.12ZM106.603 46.4C106.889 46.4 107.156 46.33 107.403 46.19C107.649 46.0433 107.849 45.8267 108.003 45.54C108.156 45.2533 108.233 44.9 108.233 44.48C108.233 44.0533 108.156 43.7 108.003 43.42C107.856 43.1333 107.659 42.92 107.413 42.78C107.173 42.6333 106.906 42.56 106.613 42.56C106.333 42.56 106.066 42.6333 105.813 42.78C105.566 42.92 105.366 43.1333 105.213 43.42C105.066 43.7 104.993 44.0533 104.993 44.48C104.993 44.9 105.066 45.2533 105.213 45.54C105.366 45.8267 105.563 46.0433 105.803 46.19C106.049 46.33 106.316 46.4 106.603 46.4ZM110.27 47V41.96H111.03L111.07 42.84C111.23 42.5267 111.457 42.2833 111.75 42.11C112.05 41.93 112.39 41.84 112.77 41.84C113.164 41.84 113.504 41.92 113.79 42.08C114.077 42.2333 114.3 42.47 114.46 42.79C114.62 43.1033 114.7 43.5033 114.7 43.99V47H113.86V44.08C113.86 43.5733 113.747 43.1933 113.52 42.94C113.3 42.6867 112.987 42.56 112.58 42.56C112.3 42.56 112.05 42.63 111.83 42.77C111.61 42.9033 111.434 43.1 111.3 43.36C111.174 43.6133 111.11 43.93 111.11 44.31V47H110.27Z" fill="white" fill-opacity="0.53"/>
<path d="M75.994 63V53.2H79.522C80.306 53.2 80.9547 53.3353 81.468 53.606C81.9813 53.8673 82.364 54.222 82.616 54.67C82.868 55.118 82.994 55.6313 82.994 56.21C82.994 56.7513 82.8727 57.2507 82.63 57.708C82.3873 58.156 82.0093 58.52 81.496 58.8C80.9827 59.0707 80.3247 59.206 79.522 59.206H77.674V63H75.994ZM77.674 57.834H79.424C80.0867 57.834 80.5627 57.6893 80.852 57.4C81.1413 57.1013 81.286 56.7047 81.286 56.21C81.286 55.6967 81.1413 55.2953 80.852 55.006C80.5627 54.7167 80.0867 54.572 79.424 54.572H77.674V57.834ZM84.3872 63V52.92H86.0672V63H84.3872ZM90.2939 63.168C89.7152 63.168 89.2346 63.07 88.8519 62.874C88.4692 62.678 88.1846 62.4167 87.9979 62.09C87.8112 61.7633 87.7179 61.4087 87.7179 61.026C87.7179 60.578 87.8299 60.1907 88.0539 59.864C88.2872 59.5373 88.6279 59.2853 89.0759 59.108C89.5239 58.9213 90.0746 58.828 90.7279 58.828H92.5059C92.5059 58.4547 92.4546 58.1467 92.3519 57.904C92.2492 57.652 92.0906 57.4653 91.8759 57.344C91.6612 57.2227 91.3859 57.162 91.0499 57.162C90.6672 57.162 90.3406 57.2507 90.0699 57.428C89.7992 57.596 89.6312 57.8573 89.5659 58.212H87.9139C87.9699 57.708 88.1379 57.2787 88.4179 56.924C88.6979 56.56 89.0666 56.28 89.5239 56.084C89.9906 55.8787 90.4992 55.776 91.0499 55.776C91.7126 55.776 92.2772 55.8927 92.7439 56.126C93.2106 56.35 93.5652 56.6767 93.8079 57.106C94.0599 57.526 94.1859 58.0347 94.1859 58.632V63H92.7579L92.5899 61.866C92.4966 62.0527 92.3752 62.2253 92.2259 62.384C92.0859 62.5427 91.9226 62.6827 91.7359 62.804C91.5492 62.916 91.3346 63.0047 91.0919 63.07C90.8586 63.1353 90.5926 63.168 90.2939 63.168ZM90.6719 61.838C90.9426 61.838 91.1806 61.7913 91.3859 61.698C91.6006 61.5953 91.7826 61.4553 91.9319 61.278C92.0906 61.0913 92.2119 60.886 92.2959 60.662C92.3799 60.438 92.4359 60.2 92.4639 59.948V59.92H90.9099C90.5832 59.92 90.3126 59.962 90.0979 60.046C89.8832 60.1207 89.7292 60.2327 89.6359 60.382C89.5426 60.5313 89.4959 60.704 89.4959 60.9C89.4959 61.096 89.5426 61.264 89.6359 61.404C89.7292 61.544 89.8646 61.6513 90.0419 61.726C90.2192 61.8007 90.4292 61.838 90.6719 61.838ZM96.6025 66.08L98.3245 62.216H97.9045L95.0905 55.944H96.9245L99.0245 60.732L101.013 55.944H102.791L98.3805 66.08H96.6025ZM110.77 63.168C110.061 63.168 109.431 63.042 108.88 62.79C108.33 62.538 107.9 62.1787 107.592 61.712C107.284 61.2453 107.126 60.69 107.116 60.046H108.894C108.894 60.3727 108.969 60.6667 109.118 60.928C109.277 61.18 109.492 61.3807 109.762 61.53C110.042 61.6793 110.378 61.754 110.77 61.754C111.106 61.754 111.396 61.7027 111.638 61.6C111.89 61.488 112.082 61.334 112.212 61.138C112.352 60.9327 112.422 60.6947 112.422 60.424C112.422 60.116 112.348 59.864 112.198 59.668C112.058 59.4627 111.862 59.29 111.61 59.15C111.358 59.01 111.069 58.8887 110.742 58.786C110.416 58.674 110.07 58.5573 109.706 58.436C108.932 58.1747 108.348 57.8433 107.956 57.442C107.564 57.0313 107.368 56.4853 107.368 55.804C107.368 55.2347 107.504 54.7447 107.774 54.334C108.045 53.9233 108.423 53.606 108.908 53.382C109.403 53.1487 109.972 53.032 110.616 53.032C111.27 53.032 111.839 53.1487 112.324 53.382C112.819 53.6153 113.206 53.942 113.486 54.362C113.776 54.7727 113.925 55.2673 113.934 55.846H112.142C112.133 55.6033 112.068 55.3793 111.946 55.174C111.825 54.9593 111.648 54.7867 111.414 54.656C111.19 54.516 110.915 54.446 110.588 54.446C110.308 54.4367 110.056 54.4833 109.832 54.586C109.618 54.6793 109.445 54.8193 109.314 55.006C109.193 55.1833 109.132 55.4073 109.132 55.678C109.132 55.9393 109.188 56.1587 109.3 56.336C109.422 56.504 109.594 56.6487 109.818 56.77C110.042 56.882 110.304 56.9893 110.602 57.092C110.901 57.1947 111.228 57.3067 111.582 57.428C112.068 57.5867 112.506 57.7827 112.898 58.016C113.3 58.24 113.617 58.534 113.85 58.898C114.084 59.262 114.2 59.7333 114.2 60.312C114.2 60.816 114.07 61.2873 113.808 61.726C113.547 62.1553 113.164 62.5053 112.66 62.776C112.156 63.0373 111.526 63.168 110.77 63.168ZM118.844 63C118.368 63 117.953 62.9253 117.598 62.776C117.253 62.6267 116.982 62.3793 116.786 62.034C116.59 61.6887 116.492 61.222 116.492 60.634V57.358H115.288V55.944H116.492L116.688 54.082H118.172V55.944H120.09V57.358H118.172V60.634C118.172 60.9887 118.247 61.236 118.396 61.376C118.555 61.5067 118.816 61.572 119.18 61.572H120.048V63H118.844ZM124.783 63.168C124.111 63.168 123.504 63.014 122.963 62.706C122.431 62.3887 122.011 61.9547 121.703 61.404C121.404 60.844 121.255 60.2047 121.255 59.486C121.255 58.7487 121.409 58.1047 121.717 57.554C122.025 56.994 122.445 56.56 122.977 56.252C123.518 55.9347 124.125 55.776 124.797 55.776C125.469 55.776 126.071 55.9347 126.603 56.252C127.144 56.56 127.564 56.9893 127.863 57.54C128.171 58.0907 128.325 58.7347 128.325 59.472C128.325 60.2093 128.171 60.8533 127.863 61.404C127.555 61.9547 127.13 62.3887 126.589 62.706C126.057 63.014 125.455 63.168 124.783 63.168ZM124.783 61.726C125.119 61.726 125.422 61.642 125.693 61.474C125.973 61.306 126.197 61.054 126.365 60.718C126.533 60.382 126.617 59.9667 126.617 59.472C126.617 58.9773 126.533 58.5667 126.365 58.24C126.206 57.904 125.987 57.652 125.707 57.484C125.436 57.316 125.133 57.232 124.797 57.232C124.47 57.232 124.167 57.316 123.887 57.484C123.607 57.652 123.383 57.904 123.215 58.24C123.047 58.5667 122.963 58.9773 122.963 59.472C122.963 59.9667 123.047 60.382 123.215 60.718C123.383 61.054 123.602 61.306 123.873 61.474C124.153 61.642 124.456 61.726 124.783 61.726ZM129.969 63V55.944H131.467L131.621 57.26C131.789 56.952 131.999 56.6907 132.251 56.476C132.503 56.252 132.797 56.0793 133.133 55.958C133.479 55.8367 133.857 55.776 134.267 55.776V57.554H133.679C133.399 57.554 133.133 57.5913 132.881 57.666C132.629 57.7313 132.41 57.8433 132.223 58.002C132.046 58.1513 131.906 58.3613 131.803 58.632C131.701 58.8933 131.649 59.2247 131.649 59.626V63H129.969ZM138.687 63.168C137.987 63.168 137.371 63.0187 136.839 62.72C136.307 62.412 135.892 61.9827 135.593 61.432C135.295 60.8813 135.145 60.2467 135.145 59.528C135.145 58.7813 135.29 58.128 135.579 57.568C135.878 57.008 136.293 56.5693 136.825 56.252C137.367 55.9347 137.992 55.776 138.701 55.776C139.392 55.776 139.994 55.93 140.507 56.238C141.021 56.546 141.417 56.9613 141.697 57.484C141.977 57.9973 142.117 58.576 142.117 59.22C142.117 59.3133 142.117 59.416 142.117 59.528C142.117 59.64 142.108 59.7567 142.089 59.878H136.349V58.8H140.423C140.405 58.2867 140.232 57.8853 139.905 57.596C139.579 57.2973 139.173 57.148 138.687 57.148C138.342 57.148 138.025 57.2273 137.735 57.386C137.446 57.5447 137.217 57.7827 137.049 58.1C136.881 58.408 136.797 58.8 136.797 59.276V59.682C136.797 60.1207 136.877 60.4987 137.035 60.816C137.203 61.1333 137.427 61.376 137.707 61.544C137.997 61.7027 138.319 61.782 138.673 61.782C139.065 61.782 139.387 61.698 139.639 61.53C139.901 61.362 140.092 61.138 140.213 60.858H141.921C141.791 61.2967 141.576 61.6933 141.277 62.048C140.979 62.3933 140.61 62.6687 140.171 62.874C139.733 63.07 139.238 63.168 138.687 63.168Z" fill="white"/>
</g>
<defs>
<filter id="filter0_d_4870_193785" x="0" y="0" width="204" height="112" filterUnits="userSpaceOnUse" color-interpolation-filters="sRGB">
<feFlood flood-opacity="0" result="BackgroundImageFix"/>
<feColorMatrix in="SourceAlpha" type="matrix" values="0 0 0 0 0 0 0 0 0 0 0 0 0 0 0 0 0 0 127 0" result="hardAlpha"/>
<feOffset dy="4"/>
<feGaussianBlur stdDeviation="17"/>
<feComposite in2="hardAlpha" operator="out"/>
<feColorMatrix type="matrix" values="0 0 0 0 0 0 0 0 0 0 0 0 0 0 0 0 0 0 0.07 0"/>
<feBlend mode="normal" in2="BackgroundImageFix" result="effect1_dropShadow_4870_193785"/>
<feBlend mode="normal" in="SourceGraphic" in2="effect1_dropShadow_4870_193785" result="shape"/>
</filter>
</defs>
</svg>
