<svg width="93" height="42" viewBox="0 0 93 42" fill="none" xmlns="http://www.w3.org/2000/svg">
<g filter="url(#filter0_di_1_792)">
<path d="M4.35547 12.1953C4.35547 6.90329 8.64548 2.61328 13.9375 2.61328H78.9971C84.2891 2.61328 88.5791 6.90329 88.5791 12.1953V25.8946C88.5791 31.1866 84.2891 35.4766 78.9971 35.4766H13.9375C8.64548 35.4766 4.35547 31.1866 4.35547 25.8946V12.1953Z" fill="url(#paint0_linear_1_792)"/>
<path d="M78.9971 2.17773C84.5296 2.17773 89.0146 6.66277 89.0146 12.1953V25.8945C89.0146 31.4271 84.5296 35.9121 78.9971 35.9121H13.9375C8.40496 35.9121 3.91992 31.4271 3.91992 25.8945V12.1953C3.91992 6.66277 8.40496 2.17773 13.9375 2.17773H78.9971Z" stroke="url(#paint1_linear_1_792)" stroke-width="0.871091"/>
</g>
<defs>
<filter id="filter0_di_1_792" x="9.77516e-06" y="4.88758e-06" width="92.9346" height="41.5742" filterUnits="userSpaceOnUse" color-interpolation-filters="sRGB">
<feFlood flood-opacity="0" result="BackgroundImageFix"/>
<feColorMatrix in="SourceAlpha" type="matrix" values="0 0 0 0 0 0 0 0 0 0 0 0 0 0 0 0 0 0 127 0" result="hardAlpha"/>
<feOffset dy="1.74218"/>
<feGaussianBlur stdDeviation="1.74218"/>
<feComposite in2="hardAlpha" operator="out"/>
<feColorMatrix type="matrix" values="0 0 0 0 0 0 0 0 0 0 0 0 0 0 0 0 0 0 0.06 0"/>
<feBlend mode="normal" in2="BackgroundImageFix" result="effect1_dropShadow_1_792"/>
<feBlend mode="normal" in="SourceGraphic" in2="effect1_dropShadow_1_792" result="shape"/>
<feColorMatrix in="SourceAlpha" type="matrix" values="0 0 0 0 0 0 0 0 0 0 0 0 0 0 0 0 0 0 127 0" result="hardAlpha"/>
<feOffset dy="2.61327"/>
<feGaussianBlur stdDeviation="0.871091"/>
<feComposite in2="hardAlpha" operator="arithmetic" k2="-1" k3="1"/>
<feColorMatrix type="matrix" values="0 0 0 0 0 0 0 0 0 0 0 0 0 0 0 0 0 0 0.11 0"/>
<feBlend mode="normal" in2="shape" result="effect2_innerShadow_1_792"/>
</filter>
<linearGradient id="paint0_linear_1_792" x1="4.35547" y1="5.619" x2="90.6106" y2="21.2884" gradientUnits="userSpaceOnUse">
<stop stop-color="#F1F1F1"/>
<stop offset="1" stop-color="#E1E1E1"/>
</linearGradient>
<linearGradient id="paint1_linear_1_792" x1="9.49116" y1="2.61328" x2="82.6979" y2="37.061" gradientUnits="userSpaceOnUse">
<stop stop-color="#F6F6F6"/>
<stop offset="0.5" stop-color="white"/>
<stop offset="1" stop-color="#F6F6F6"/>
</linearGradient>
</defs>
</svg>
