<svg width="142" height="32" viewBox="0 0 142 32" fill="none" xmlns="http://www.w3.org/2000/svg">
<path d="M132.11 0.25C137.08 0.250001 141.11 4.27944 141.11 9.25V22.3594C141.11 27.3299 137.08 31.3594 132.11 31.3594H13.3676C11.4278 31.3594 9.63313 30.7431 8.16354 29.6992L0.403778 30.5332L4.36765 21.5723V9.25C4.36765 4.27944 8.39708 0.25 13.3676 0.25H132.11Z" fill="white" fill-opacity="0.57"/>
<path d="M132.11 0.25V0V0V0.25ZM141.11 9.25H141.36V9.25H141.11ZM141.11 22.3594H141.36V22.3594H141.11ZM132.11 31.3594V31.6094V31.3594ZM13.3676 31.3594V31.6094V31.6094V31.3594ZM8.16354 29.6992L8.30832 29.4954L8.23105 29.4405L8.13683 29.4507L8.16354 29.6992ZM0.403778 30.5332L0.175148 30.4321L-1.00732e-05 30.828L0.430493 30.7818L0.403778 30.5332ZM4.36765 21.5723L4.59628 21.6734L4.61765 21.6251V21.5723H4.36765ZM4.36765 9.25H4.11765V9.25H4.36765ZM13.3676 0.25V0V0.25ZM132.11 0.25V0.5C136.942 0.500001 140.86 4.41751 140.86 9.25H141.11H141.36C141.36 4.14137 137.218 6.10948e-07 132.11 0V0.25ZM141.11 9.25H140.86V22.3594H141.11H141.36V9.25H141.11ZM141.11 22.3594H140.86C140.86 27.1919 136.942 31.1094 132.11 31.1094V31.3594V31.6094C137.218 31.6094 141.36 27.468 141.36 22.3594H141.11ZM132.11 31.3594V31.1094H13.3676V31.3594V31.6094H132.11V31.3594ZM13.3676 31.3594V31.1094C11.4816 31.1094 9.73724 30.5104 8.30832 29.4954L8.16354 29.6992L8.01877 29.903C9.52903 30.9758 11.374 31.6094 13.3676 31.6094V31.3594ZM8.16354 29.6992L8.13683 29.4507L0.377063 30.2846L0.403778 30.5332L0.430493 30.7818L8.19026 29.9478L8.16354 29.6992ZM0.403778 30.5332L0.632408 30.6343L4.59628 21.6734L4.36765 21.5723L4.13901 21.4711L0.175148 30.4321L0.403778 30.5332ZM4.36765 21.5723H4.61765V9.25H4.36765H4.11765V21.5723H4.36765ZM4.36765 9.25H4.61765C4.61765 4.41751 8.53515 0.5 13.3676 0.5V0.25V0C8.25901 4.47035e-08 4.11765 4.14137 4.11765 9.25H4.36765ZM13.3676 0.25V0.5H132.11V0.25V0H13.3676V0.25Z" fill="white"/>
</svg>
